<?xml version="1.0" standalone="no"?>
<!DOCTYPE svg PUBLIC "-//W3C//DTD SVG 20010904//EN"
 "http://www.w3.org/TR/2001/REC-SVG-20010904/DTD/svg10.dtd">
<svg version="1.0" xmlns="http://www.w3.org/2000/svg"
 width="217.000000pt" height="71.000000pt" viewBox="0 0 217.000000 71.000000"
 preserveAspectRatio="xMidYMid meet">

<g transform="translate(0.000000,71.000000) scale(0.100000,-0.100000)"
fill="#000000" stroke="none">
<path d="M258 550 l-28 -17 28 -26 c29 -28 35 -27 81 9 6 5 -20 34 -38 43 -10
5 -26 2 -43 -9z"/>
<path d="M1240 435 c0 -14 -4 -25 -10 -25 -5 0 -10 -7 -10 -15 0 -8 5 -15 10
-15 6 0 10 -22 10 -48 0 -58 14 -80 58 -88 28 -6 32 -4 32 14 0 11 -7 22 -15
26 -10 4 -15 20 -15 51 0 33 4 45 15 45 8 0 15 7 15 15 0 8 -7 15 -15 15 -9 0
-15 9 -15 25 0 21 -5 25 -30 25 -25 0 -30 -4 -30 -25z"/>
<path d="M256 435 c-18 -13 -17 -14 7 -20 15 -4 31 -13 38 -21 9 -10 16 -11
32 -2 21 11 20 11 -9 34 -34 28 -42 29 -68 9z"/>
<path d="M410 423 c-14 -9 -27 -18 -29 -20 -6 -4 40 -53 49 -53 4 0 19 10 34
21 l27 21 -22 24 c-27 29 -28 29 -59 7z"/>
<path d="M132 414 c-12 -8 -22 -19 -22 -23 0 -17 45 -20 69 -4 23 15 24 16 6
29 -24 17 -26 17 -53 -2z"/>
<path d="M640 300 l0 -110 30 0 c28 0 30 3 30 35 0 38 2 40 30 25 47 -25 96
35 83 101 -9 49 -71 77 -101 47 -9 -9 -12 -9 -12 0 0 7 -13 12 -30 12 l-30 0
0 -110z m108 58 c28 -28 3 -85 -32 -72 -19 7 -22 70 -3 77 19 8 22 8 35 -5z"/>
<path d="M894 400 c-28 -11 -54 -48 -54 -77 0 -39 42 -77 85 -77 43 0 85 39
85 79 0 51 -68 95 -116 75z m51 -75 c0 -33 -3 -40 -20 -40 -15 0 -21 8 -23 28
-5 39 5 59 25 55 14 -2 18 -13 18 -43z"/>
<path d="M1078 399 c-53 -20 -42 -74 17 -85 40 -7 53 -20 36 -37 -8 -8 -14 -8
-23 1 -18 18 -69 16 -62 -3 15 -38 136 -35 149 4 10 32 -6 51 -51 62 -24 6
-44 15 -44 20 0 15 22 21 33 10 13 -13 57 -15 57 -2 0 28 -69 46 -112 30z"/>
<path d="M30 381 c0 -18 34 -51 52 -51 15 0 8 30 -12 50 -25 25 -40 25 -40 1z"/>
<path d="M105 343 c8 -33 4 -29 34 -38 22 -7 23 -5 17 21 -8 30 -22 44 -45 44
-9 0 -11 -8 -6 -27z"/>
<path d="M260 342 c-21 -17 -22 -23 -14 -51 9 -30 10 -31 32 -16 22 16 29 49
13 73 -6 10 -13 9 -31 -6z"/>
<path d="M462 344 c-13 -9 -21 -21 -19 -27 2 -7 -2 -20 -11 -29 -8 -10 -10
-18 -5 -18 14 0 37 29 29 37 -3 4 4 17 16 30 25 27 22 29 -10 7z"/>
<path d="M170 338 c0 -34 15 -58 40 -67 28 -9 28 -9 19 21 -10 35 -7 32 -36
47 -18 9 -23 9 -23 -1z"/>
<path d="M50 307 c0 -20 30 -57 46 -57 20 0 17 27 -6 50 -23 23 -40 26 -40 7z"/>
<path d="M392 289 c-13 -10 -25 -24 -26 -31 -1 -7 -5 -19 -9 -25 -5 -7 -4 -20
1 -29 6 -11 11 -13 16 -5 4 6 2 11 -5 11 -7 0 -2 11 12 26 21 22 21 24 4 18
-14 -4 -11 2 10 19 35 29 32 45 -3 16z"/>
<path d="M124 268 c3 -13 6 -26 6 -29 0 -3 11 -11 25 -17 22 -10 25 -9 25 6 0
23 -19 47 -44 56 -15 5 -17 3 -12 -16z"/>
<path d="M193 238 c4 -12 7 -26 7 -30 0 -4 13 -14 28 -22 28 -15 28 -15 24 15
-3 21 -14 35 -35 45 -29 16 -30 16 -24 -8z"/>
<path d="M414 246 c-10 -8 -16 -17 -13 -20 3 -3 14 3 24 14 21 23 17 26 -11 6z"/>
<path d="M75 218 c7 -23 40 -58 55 -58 15 0 -3 51 -23 65 -30 21 -39 19 -32
-7z"/>
<path d="M143 189 c4 -13 7 -27 7 -31 0 -4 13 -14 29 -23 l30 -15 -9 31 c-11
36 -8 32 -39 49 -22 12 -24 11 -18 -11z"/>
<path d="M301 171 c-19 -15 -22 -23 -16 -49 6 -29 8 -30 31 -20 16 8 24 19 24
37 0 43 -12 52 -39 32z"/>
<path d="M214 154 c3 -9 6 -21 6 -28 0 -6 14 -20 30 -30 l31 -18 -7 29 c-6 28
-37 63 -56 63 -6 0 -7 -7 -4 -16z"/>
</g>
</svg>
